<?xml version="1.0" standalone="no"?>
<!DOCTYPE svg PUBLIC "-//W3C//DTD SVG 20010904//EN"
 "http://www.w3.org/TR/2001/REC-SVG-20010904/DTD/svg10.dtd">
<svg version="1.0" xmlns="http://www.w3.org/2000/svg"
 width="16.000000pt" height="16.000000pt" viewBox="0 0 16.000000 16.000000"
 preserveAspectRatio="xMidYMid meet">
<metadata>
Created by potrace 1.11, written by Peter Selinger 2001-2013
</metadata>
<g transform="translate(0.000000,16.000000) scale(0.006154,-0.006154)"
fill="#000000" stroke="none">
<path d="M522 1990 c-252 -66 -437 -278 -479 -547 -12 -80 -7 -223 11 -308 44
-210 190 -389 376 -459 181 -68 425 -59 588 21 111 55 247 220 282 344 l9 29
-80 1 c-240 2 -232 3 -254 -33 -49 -83 -143 -130 -260 -131 -44 -1 -99 4 -122
11 -109 32 -179 131 -198 280 -1 12 2 25 6 28 5 3 216 5 469 6 l460 1 2 21 c6
82 -8 207 -31 289 -62 216 -186 357 -374 429 -76 29 -80 30 -212 33 -94 3
-136 0 -193 -15z m297 -280 c27 -12 60 -40 79 -64 29 -39 72 -141 72 -171 0
-10 -66 -13 -288 -13 l-289 1 8 43 c21 109 96 194 198 220 67 17 166 10 220
-16z"/>
<path d="M1258 1975 c5 -8 198 -290 390 -569 51 -75 54 -81 40 -104 -16 -26
-153 -227 -320 -468 -60 -85 -108 -157 -108 -159 0 -3 90 -5 199 -5 l200 0
107 158 c59 86 115 167 125 179 17 23 18 21 140 -157 l124 -179 203 -1 c111 0
202 2 202 5 0 6 -29 53 -43 70 -5 6 -16 22 -25 37 -9 14 -53 77 -96 140 -44
62 -113 163 -155 223 -41 61 -87 127 -102 148 l-28 38 37 54 c102 149 199 291
204 300 4 7 -61 10 -193 10 l-200 0 -20 -33 c-12 -17 -24 -32 -28 -32 -4 0
-42 51 -84 113 -42 61 -96 141 -121 177 l-46 65 -204 0 c-136 0 -202 -3 -198
-10z"/>
<path d="M2144 1953 c-13 -17 -24 -34 -24 -37 0 -3 90 -5 199 -5 l200 0 20 35
c12 19 21 36 21 37 0 1 -88 2 -196 2 l-195 0 -25 -32z"/>
<path d="M2074 1840 c-13 -5 -54 -57 -54 -70 0 -3 88 -5 196 -5 l196 0 26 33
c14 18 22 35 19 39 -8 7 -362 10 -383 3z"/>
</g>
</svg>
